<svg xmlns="http://www.w3.org/2000/svg" xmlns:xlink="http://www.w3.org/1999/xlink" width="0" height="0" style="position:absolute;">
    <symbol id="icon-code-example" viewBox="0 0 24 24">
        <path d="M14.304 19.302a.989.989 0 0 0 0 1.407 1.009 1.009 0 0 0 1.418 0l2.955-2.93c.43-.426.43-1.111.009-1.539l-2.974-2.949a1.009 1.009 0 0 0-1.418 0 .989.989 0 0 0 0 1.407l2.327 2.307-2.317 2.297zM9.707 4.698a.988.988 0 0 0 0-1.407 1.01 1.01 0 0 0-1.418 0l-2.966 2.94a1.09 1.09 0 0 0 0 1.548l2.956 2.93a1.01 1.01 0 0 0 1.418 0 .988.988 0 0 0 0-1.407L7.38 7.005l2.327-2.307zm-3 14.009l12-12a1 1 0 1 0-1.414-1.414l-12 12a1 1 0 0 0 1.414 1.414z" fill="currentColor" role="presentation"></path>
    </symbol>
    <symbol id="icon-component" viewBox="0 0 24 24">
        <g stroke="currentColor" fill="none" fill-rule="evenodd" stroke-width="1">
            <rect x="4.2352" y="9.2457" width="15.53" height="9.5086"/>
            <rect x="13.286" y="5.8617" width="4.3489" height="3.1265"/>
            <rect x="6.2226" y="5.9173" width="4.3096" height="3.3029"/>
        </g>
    </symbol>
    <symbol id="icon-layout" viewBox="0 0 24 24">
        <g fill="none" fill-rule="evenodd" stroke="currentColor" stroke-width="1">
            <rect x="3" y="4.5595" width="18" height="16.44" rx="2" ry="1.8267"/>
            <line x1="3" x2="21" y1="10.119" y2="10.119"/>
            <line x1="9" x2="9" y1="20.296" y2="10.857"/>
        </g>
    </symbol>
    <symbol id="icon-guide" viewBox="0 0 297.001 297.001">
        <path fill="currentColor" d="M287.034,60.873l-20.819-0.001V39.321c0-4.934-3.61-9.126-8.49-9.856c-0.852-0.128-21.134-3.074-45.557,1.37c-27.227,4.954-48.941,17.171-63.668,35.64c-14.728-18.469-36.442-30.686-63.668-35.64c-24.424-4.443-44.706-1.498-45.557-1.37c-4.88,0.731-8.49,4.923-8.49,9.856v21.551H9.966C4.463,60.872,0,65.335,0,70.839v187.805c0,3.227,1.562,6.254,4.193,8.124s6.004,2.35,9.051,1.288c0.748-0.259,75.431-25.747,131.12-0.345c2.628,1.199,5.645,1.199,8.273,0c55.533-25.33,130.376,0.088,131.12,0.345c1.068,0.372,2.174,0.555,3.276,0.555c2.043,0,4.065-0.628,5.775-1.842c2.631-1.87,4.193-4.897,4.193-8.124V70.84C297,65.336,292.538,60.873,287.034,60.873z M19.933,245.309V80.805h10.852v132.726c0,2.896,1.267,5.646,3.458,7.539c2.191,1.893,5.105,2.742,7.969,2.319c0.55-0.08,43.846-6.024,75.478,15.679C78.725,232.405,39.727,240.112,19.933,245.309z M138.534,230.08c-13.932-12.588-32.079-21.1-53.702-25.034c-10.406-1.894-20.06-2.446-27.78-2.446c-2.292,0-4.414,0.049-6.333,0.126V48.473h-0.001c19.155-0.864,65.752,1.184,87.816,38.587V230.08z M158.466,87.061c21.985-37.243,68.655-39.384,87.816-38.563v154.228c-8.383-0.338-20.62-0.136-34.114,2.32c-21.623,3.934-39.77,12.445-53.702,25.034V87.061z M179.277,239.074c31.636-21.716,74.955-15.766,75.495-15.686c2.871,0.431,5.783-0.413,7.981-2.305c2.198-1.894,3.462-4.65,3.462-7.552V80.806h10.852v164.503C257.267,240.11,218.253,232.4,179.277,239.074z"/>
    </symbol>
    <symbol id="icon-ln" viewBox="0 0 24 24">
        <g stroke="currentColor" fill="none" fill-rule="evenodd" stroke-width="2">
            <path d="M10 13a5 5 0 0 0 7.54.54l3-3a5 5 0 0 0-7.07-7.07l-1.72 1.71"></path>
            <path d="M14 11a5 5 0 0 0-7.54-.54l-3 3a5 5 0 0 0 7.07 7.07l1.71-1.71"></path>
        </g>
    </symbol>
    <symbol id="icon-insights" viewBox="0 0 1000 1000">
        <g fill="currentColor" transform="translate(0.000000,511.000000) scale(0.100000,-0.100000)">
            <path d="M8734.9,3367.3c-408.6-152.6-750-284.5-757.7-294.8c-10.4-7.8,82.8-100.9,204.3-204.3c191.4-165.5,217.2-196.5,188.8-235.3c-18.1-23.3-594.8-687.9-1282.7-1476.7L5835.8-276.7L5096.2,72.5c-406,191.4-809.5,380.2-897.4,419L4041,563.9L2494.5-1259.4L950.6-3085.2l72.4-59.5c41.4-33.6,118.9-93.1,175.8-131.9l98.3-69.8l49.1,56.9C1666.9-2891.2,4149.6,25.9,4165.2,25.9c12.9,0,408.6-181,879.3-403.4c473.3-219.8,868.9-403.5,879.3-406c10.3-2.6,625.8,687.9,1368.1,1533.6c742.2,845.7,1370.7,1562,1396.5,1587.9c46.5,49.1,51.7,44,258.6-137.1c116.4-103.4,219.8-181,227.6-173.3c31,33.6,356.9,1618.9,331,1616.3C9490.1,3641.4,9143.5,3517.3,8734.9,3367.3z"/>
            <path d="M800.6,214.7C451.4-188.7,146.3-545.6,123-576.6c-41.4-56.9-38.8-62.1,108.6-181c85.3-67.2,162.9-121.6,175.9-121.6c18.1,0,677.6,755.2,1065.5,1220.7c36.2,44,72.4,25.9,594.8-318.1c305.2-201.7,569-369.8,584.5-377.6c12.9-5.1,87.9,62.1,162.9,150l134.5,160.3l-667.2,439.7c-367.2,240.5-708.6,465.5-757.7,496.5l-90.5,56.9L800.6,214.7z"/>
            <path d="M9097-330.9c-411.2-165.5-744.8-310.3-744.8-318.1s98.3-93.1,219.8-188.8c121.6-95.7,219.8-183.6,219.8-191.4c0-15.5-887.1-1125-1383.6-1730.1l-108.6-134.5l-1600.8,1050C4819.5-1267.1,4085-791.3,4069.5-783.5c-23.3,7.8-305.2-302.6-287.1-318.1c147.4-108.6,3553.4-2319.8,3579.2-2322.4c20.7,0,421.5,465.5,894.8,1042.2c473.3,576.7,871.5,1050,884.5,1055.1c15.5,2.6,118.9-67.2,232.8-160.3c113.8-93.1,212.1-168.1,219.8-168.1c10.4,0,77.6,351.7,155.2,783.6c75,429.3,142.2,796.6,150,814.6c5.2,15.5-5.2,31-23.3,28.5C9854.7-28.4,9505.6-165.4,9097-330.9z"/>
        </g>
    </symbol>
    <symbol id="icon-about" viewBox="0 0 496.304 496.303">
        <path fill="currentColor" d="M248.146,0C111.314,0,0,111.321,0,248.152c0,136.829,111.314,248.151,248.146,248.151c136.835,0,248.158-111.322,248.158-248.151C496.304,111.321,384.98,0,248.146,0zM248.146,472.093c-123.473,0-223.935-100.459-223.935-223.941c0-123.479,100.462-223.941,223.935-223.941c123.488,0,223.947,100.462,223.947,223.941C472.093,371.634,371.634,472.093,248.146,472.093zM319.536,383.42v32.852c0,1.383-1.123,2.494-2.482,2.494H196.45c-1.374,0-2.482-1.117-2.482-2.494V383.42c0-1.372,1.114-2.482,2.482-2.482h34.744V205.831h-35.101c-1.375,0-2.468-1.111-2.468-2.474v-33.6c0-1.38,1.1-2.479,2.468-2.479h82.293c1.371,0,2.482,1.105,2.482,2.479v211.181h36.186C318.413,380.938,319.536,382.048,319.536,383.42zM209.93,105.927c0-20.895,16.929-37.829,37.829-37.829c20.886,0,37.826,16.935,37.826,37.829s-16.94,37.829-37.826,37.829C226.853,143.756,209.93,126.822,209.93,105.927z"/>
    </symbol>
    <symbol id="icon-category" viewBox="0 0 779.652 779.652">
        <path fill="currentColor" d="M679.503,349.728L151.09,9.181C119.742-7.703,83.832-5.951,83.832,54.688v670.58c0,55.408,38.525,64.17,67.258,45.506l528.442-340.547C701.255,407.975,701.255,371.953,679.503,349.728z"/>
    </symbol>
    <symbol id="icon-in" viewBox="0 0 24 24">
        <g stroke="currentColor" fill="currentColor" stroke-width="1">
            <path d="M 7 12 C 7 8.137 10.137 5 14 5 C 17.863 5 21 8.137 21 12 C 21 15.863 17.863 19 14 19 C 10.137 19 7 15.863 7 12 Z "
                fill="none"/>
            <line x1="3" y1="12" x2="14" y2="12"/>
            <path d="M 11.75 14.5 L 16.75 12 L 11.75 9.5 Z" stroke="none"/>
        </g>
    </symbol>
    <symbol id="icon-out" viewBox="0 0 24 24">
        <g stroke="currentColor" fill="currentColor" stroke-width="1">
            <path d="M 7 12 C 7 8.137 10.137 5 14 5 C 17.863 5 21 8.137 21 12 C 21 15.863 17.863 19 14 19 C 10.137 19 7 15.863 7 12 Z "
                fill="none"/>
            <line x1="3" y1="12" x2="14" y2="12"/>
            <path d="M 5.25 9.5 L 0.25 12 L 5.25 14.5 Z" stroke="none"/>
        </g>
    </symbol>
    <symbol id="icon-filter" viewBox="0 0 24 24">
        <g stroke="currentColor" fill="currentColor" stroke-width="1">
            <path d="M 2 12 C 2 6.481 6.481 2 12 2 C 17.519 2 22 6.481 22 12 C 22 17.519 17.519 22 12 22 C 6.481 22 2 17.519 2 12 Z "
                fill="none"/>
            <line x1="7" y1="10" x2="17" y2="10"/>
            <line x1="9" y1="13" x2="15" y2="13"/>
            <line x1="11.5" y1="16" x2="12.5" y2="16"/>
        </g>
    </symbol>
    <symbol id="icon-variable" viewBox="0 0 24 24">
        <g stroke="currentColor" fill="currentColor" stroke-width="1">
            <path d="m5 12c0-3.863 3.137-7 7-7 3.863 0 7 3.137 7 7 0 3.863-3.137 7-7 7-3.863 0-7-3.137-7-7z" fill="none"/>
            <text x="7.332202" y="15.761719" stroke="none">&gt;</text>
        </g>
    </symbol>
    <symbol id="icon-bundle" viewBox="0 0 24 24" stroke-linecap="round" stroke-linejoin="round" stroke="currentColor" fill="none" stroke-width="1">
        <path d="m1.7236 5.7036v12.021l9.568 3.9775 9.6122-3.9775v-12.021l-9.6122 4.2227z" stroke-linecap="round" stroke-linejoin="round"/>
        <path d="m1.7236 5.7036 9.568-3.8007 9.6122 3.8007"/>
        <path d="m11.292 9.9263v11.416"/>
        <path d="m6.7348 3.6402c3.2098 1.2404 6.375 2.705 9.562 4.0473"/>
    </symbol>
    <symbol id="icon-styleguide" viewBox="0 0 24 24">
        <g stroke="currentColor" fill="white" stroke-width="1">
            <path
                d="M 19.998 18.399 L 20.028 20.398 C 20.036 20.95 19.594 21.405 19.042 21.413 L 4.044 21.633 C 3.492 21.641 3.038 21.2 3.029 20.648 L 3 18.648 C 2.992 18.096 3.433 17.642 3.985 17.633 L 18.984 17.413 C 19.536 17.405 19.99 17.847 19.998 18.399 Z"/>
            <path
                d="M 17.717 10.681 L 18.746 12.396 C 19.031 12.869 18.877 13.484 18.404 13.768 L 5.544 21.49 C 5.071 21.775 4.456 21.621 4.172 21.148 L 3.143 19.433 C 2.859 18.96 3.012 18.345 3.485 18.061 L 16.345 10.339 C 16.818 10.055 17.433 10.208 17.717 10.681 Z"/>
            <path
                d="M 11.52 5.734 L 13.259 6.723 C 13.739 6.995 13.907 7.606 13.634 8.086 L 6.223 21.127 C 5.95 21.607 5.339 21.775 4.859 21.502 L 3.12 20.514 C 2.64 20.242 2.472 19.631 2.745 19.151 L 10.157 6.11 C 10.429 5.63 11.04 5.462 11.52 5.734 Z"/>
            <path
                d="M 4 4.633 L 6 4.633 C 6.552 4.633 7 5.081 7 5.633 L 7 20.633 C 7 21.185 6.552 21.633 6 21.633 L 4 21.633 C 3.448 21.633 3 21.185 3 20.633 L 3 5.633 C 3 5.081 3.448 4.633 4 4.633 Z"/>
            <path
                d=" M 4.409 20.01 C 4.409 19.734 4.634 19.51 4.909 19.51 C 5.185 19.51 5.409 19.734 5.409 20.01 C 5.409 20.286 5.185 20.51 4.909 20.51 C 4.634 20.51 4.409 20.286 4.409 20.01 Z "
                fill="rgb(0,0,0)"/>
        </g>
    </symbol>
    <linearGradient id="atlas-blue-gradient" x1="0" y1="0" x2="0" y2="100%">
        <stop stop-color="#a7c6ed" offset="60%"/>
        <stop stop-color="#ffffff" offset="100%"/>
    </linearGradient>
    <linearGradient id="atlas-graph-gradient" x1="0" y1="0" x2="100%" y2="0">
        <stop stop-color="#df4242" offset="0%"/>
        <stop stop-color="#7d61ec" offset="50%"/>
        <stop stop-color="#2cbbfc" offset="100%"/>
    </linearGradient>
</svg>
